<svg xmlns="http://www.w3.org/2000/svg" width="375" height="428.588" viewBox="0 0 375 428.588">
  <path id="Icon_metro-hour-glass" data-name="Icon metro-hour-glass" d="M287.029,216.214c57.654-36.552,92.47-106.811,92.47-187.5a247.087,247.087,0,0,0-1.456-26.786H5.955A246.667,246.667,0,0,0,4.5,28.714c0,80.689,39.029,150.948,96.682,187.5C43.528,252.765,4.5,323.025,4.5,403.714a246.951,246.951,0,0,0,1.457,26.8l372.086-.017a246.89,246.89,0,0,0,1.456-26.786c0-80.689-34.815-150.948-92.469-187.5ZM44.677,403.714c0-78.228,33.55-144.565,93.75-166.451v-42.1c-60.2-21.885-93.75-88.222-93.75-166.451H339.32c0,78.228-33.55,144.566-93.75,166.451v42.1c60.2,21.886,93.75,88.224,93.75,166.451ZM237.043,282.171C207.054,265.16,205.4,243.094,205.392,229.7V202.821c0-13.39,1.592-35.539,31.7-52.594,16.115-9.36,30.054-23.583,40.617-41.156H106.289c10.574,17.592,24.531,31.826,40.667,41.186,29.989,17.011,31.643,39.076,31.651,52.469v26.881c0,13.389-1.592,35.539-31.7,52.594-30.394,17.653-53.043,52.6-59.887,94.728H296.981c-6.849-42.149-29.519-77.113-59.938-94.757Z" transform="translate(-4.499 -1.928)" fill="#ebd945" opacity="0.206"/>
</svg>
