<svg id="phone" xmlns="http://www.w3.org/2000/svg" width="55.06" height="63.507" viewBox="0 0 55.06 63.507">
  <path id="Pfad_11" data-name="Pfad 11" d="M55.06,43.145a12.178,12.178,0,0,0-.422-3.163.947.947,0,1,0-1.828.493,10.333,10.333,0,0,1,.356,2.673,9.971,9.971,0,0,1-5.832,9.109.947.947,0,0,0,.786,1.723,11.851,11.851,0,0,0,2.562-1.592,18.459,18.459,0,0,1-28.5,4.338h9.194a4.615,4.615,0,0,0,4.61-4.61v-.274a4.664,4.664,0,0,0-.905-2.743,10.462,10.462,0,0,1,.531-12.647A10.28,10.28,0,0,1,37.2,35a.947.947,0,0,0,.108-1.432l-7.044-7.044a3.721,3.721,0,0,1,5.261-5.263l5.089,5.089,0,0,9.533,9.532a10.323,10.323,0,0,1,1.2,1.442.947.947,0,0,0,1.56-1.074,12.2,12.2,0,0,0-1.421-1.707l-9.258-9.258V4.542A4.547,4.547,0,0,0,37.694,0H16.3a.947.947,0,1,0,0,1.894H37.694a2.65,2.65,0,0,1,2.647,2.648v.974H6.348V4.542A2.651,2.651,0,0,1,9,1.894h3.515a.947.947,0,0,0,0-1.894H9A4.547,4.547,0,0,0,4.455,4.542V18.661a5.4,5.4,0,0,0-2.105,9.771A5.4,5.4,0,0,0,4.455,38.2v13.98A4.546,4.546,0,0,0,9,56.725H19.529c.253.283.512.558.773.818A20.36,20.36,0,0,0,55.056,43.5C55.058,43.379,55.06,43.262,55.06,43.145ZM40.341,7.411V23.4l-3.474-3.474a5.615,5.615,0,0,0-7.94,7.941l6.3,6.3a11.631,11.631,0,0,0-3.8,10.526H6.348V7.411ZM1.894,23.977A3.513,3.513,0,0,1,4.455,20.6v6.753A3.513,3.513,0,0,1,1.894,23.977Zm0,8.909A3.513,3.513,0,0,1,4.455,29.51v6.753A3.513,3.513,0,0,1,1.894,32.887Zm4.454,19.3v-5.6H31.811a11.543,11.543,0,0,0,1.737,3.625,2.783,2.783,0,0,1,.546,1.633v.274a2.719,2.719,0,0,1-2.716,2.716H9A2.651,2.651,0,0,1,6.348,52.184Zm0,0"/>
  <path id="Pfad_12" data-name="Pfad 12" d="M164.065,400.289h-5.759a.947.947,0,0,0,0,1.894h5.759a.947.947,0,0,0,0-1.894Zm0,0" transform="translate(-137.841 -350.638)"/>
</svg>
